<svg xmlns="http://www.w3.org/2000/svg" xmlns:xlink="http://www.w3.org/1999/xlink" version="1.1" id="Your_Icon" x="0px" y="0px" width="100px" height="100px" viewBox="5.0 -10.0 100.0 135.0" enable-background="new 0 0 100 100" xml:space="preserve">
<polygon points="55.737,67.467 54,62.14 52.263,67.467 54,72.794 "/>
<polygon points="53.737,73.6 52,68.272 50.263,73.601 52,78.928 "/>
<polygon points="51.737,67.467 50,62.14 48.263,67.467 50,72.794 "/>
<polygon points="49.737,73.6 48,68.272 46.263,73.601 48,78.928 "/>
<polygon points="47.737,67.467 46,62.14 44.263,67.467 46,72.794 "/>
<polygon points="59.737,55.2 58,49.872 56.263,55.2 58,60.528 "/>
<polygon points="62.263,49.067 63.62,53.23 65,49 62.284,49 "/>
<polygon points="50.263,49.066 52,54.394 53.737,49.066 53.716,49 50.284,49 "/>
<polygon points="57.737,61.333 56,56.006 54.263,61.333 56,66.661 "/>
<polygon points="54.263,49.067 56,54.395 57.737,49.066 57.716,49 54.284,49 "/>
<polygon points="44.263,55.2 46,60.527 47.737,55.2 46,49.874 "/>
<polygon points="40.263,55.2 42,60.527 43.737,55.2 42,49.874 "/>
<polygon points="50.263,61.333 52,66.661 53.737,61.334 52,56.006 "/>
<polygon points="58.263,49.067 60,54.395 61.737,49.066 61.716,49 58.284,49 "/>
<polygon points="45.737,61.333 44,56.007 42.263,61.334 44,66.66 "/>
<polygon points="55.737,55.2 54,49.872 52.263,55.199 54,60.527 "/>
<polygon points="46.263,61.333 48,66.661 49.737,61.334 48,56.006 "/>
<polygon points="48.263,55.199 50,60.527 51.737,55.2 50,49.873 "/>
<polygon points="38.379,59.363 39.737,55.2 38,49.874 36.643,54.037 "/>
<polygon points="60,56.006 58.263,61.334 59.62,65.498 61.357,60.17 "/>
<polygon points="46.263,49.067 48,54.394 49.737,49.066 49.715,49 46.285,49 "/>
<polygon points="58,62.139 56.263,67.467 57.62,71.631 59.357,66.303 "/>
<polygon points="54,74.406 52.263,79.733 53.62,83.897 55.357,78.569 "/>
<polygon points="56,68.272 54.263,73.601 55.62,77.764 57.357,72.437 "/>
<polygon points="50,86.672 48.642,90.836 50,95 51.357,90.836 "/>
<polygon points="62,49.872 60.263,55.2 61.62,59.364 63.357,54.036 "/>
<polygon points="37.737,49.066 37.715,49 35,49 36.379,53.229 "/>
<polygon points="53.357,84.703 52,80.539 50.263,85.867 51.62,90.031 "/>
<polygon points="41.737,61.333 40,56.007 38.643,60.17 40.379,65.496 "/>
<polygon points="51.737,79.733 50,74.406 48.263,79.733 50,85.061 "/>
<polygon points="38.263,49.067 40,54.394 41.737,49.066 41.715,49 38.285,49 "/>
<polygon points="42.263,49.067 44,54.394 45.737,49.066 45.715,49 42.285,49 "/>
<polygon points="43.737,67.467 42,62.14 40.643,66.303 42.379,71.631 "/>
<polygon points="49.737,85.866 48,80.539 46.642,84.703 48.379,90.03 "/>
<polygon points="45.737,73.6 44,68.272 42.642,72.437 44.379,77.764 "/>
<polygon points="47.737,79.733 46,74.406 44.643,78.57 46.379,83.897 "/>
<path d="M35,48c3,0,22,0,27,0c4.333,0,5.792-2.958,5.792-5.958c0-2.917-0.375-4.917-2.792-7.042c-2.917,5.375-15.002,7.375-24,5  C33.961,38.142,32,44,35,48z"/>
<path d="M38.864,30.69c6.22,0.935,19.511,1.193,22.178-6.69c5,0,5.792,8.667,1.75,11.875c-7,5.184-17.828,4.074-21.792,2.941  c-2.961-0.846-4.944-0.273-6.433,0.739C31.766,36.739,33.042,29.792,38.864,30.69z"/>
<path d="M35.375,29.75c-1.542-3.542,0.5-11.542,8.875-10.375c7.903,1.101,8.667-5.125,3.542-11.5  c12.816,5.333,12.749,10.907,12.458,15.042c-0.598,3.709-6.02,6.315-11.25,7C42,30.833,37.75,28.792,35.375,29.75z"/>
<text x="0.0" y="117.5" font-size="5.0" font-weight="bold" font-family="Helvetica Neue, Helvetica, Arial-Unicode, Arial, Sans-serif" fill="#000000">Created by Jaime Carrion</text><text x="0.0" y="122.5" font-size="5.0" font-weight="bold" font-family="Helvetica Neue, Helvetica, Arial-Unicode, Arial, Sans-serif" fill="#000000">from the Noun Project</text></svg>