<?xml version="1.0" encoding="utf-8"?>
<!-- Generator: Adobe Illustrator 15.0.0, SVG Export Plug-In . SVG Version: 6.00 Build 0)  -->
<!DOCTYPE svg PUBLIC "-//W3C//DTD SVG 1.1//EN" "http://www.w3.org/Graphics/SVG/1.1/DTD/svg11.dtd">
<svg version="1.1" id="Layer_1" xmlns="http://www.w3.org/2000/svg" xmlns:xlink="http://www.w3.org/1999/xlink" x="0px" y="0px"
	 width="100px" height="100px" viewBox="0 0 100 100" enable-background="new 0 0 100 100" xml:space="preserve">
<path d="M55.533,32.246c-13.001,0-23.541,10.54-23.541,23.54h47.081C79.073,42.785,68.534,32.246,55.533,32.246z"/>
<path d="M22.775,64.357c0,1.014,0.83,1.843,1.843,1.843h61.831c1.014,0,1.843-0.829,1.843-1.843v-2.762
	c0-1.014-0.829-1.844-1.843-1.844H24.618c-1.013,0-1.843,0.83-1.843,1.844V64.357z"/>
<path d="M25.612,85.861c0,1.014,0.829,1.842,1.843,1.842h56.158c1.013,0,1.843-0.828,1.843-1.842V71.844
	c0-1.014-0.83-1.844-1.843-1.844H27.455c-1.014,0-1.843,0.83-1.843,1.844V85.861z"/>
<path d="M79.685,38.122c-0.061-0.083,4.743-5.854,4.743-5.854c0.545-0.643,0.348-1.69-0.441-2.328l-8.576-6.938l0,0
	c-0.789-0.637-1.893-0.596-2.455,0.092c-0.066,0.081-4.615,5.644-4.615,5.644c-3.883-1.842-8.224-2.874-12.807-2.874v2.867
	c14.941,0,27.055,12.113,27.055,27.055h2.867C85.455,49.179,83.312,43.072,79.685,38.122z"/>
<path d="M83.27,33.652"/>
<polygon points="19.054,21.226 27.41,16.833 25.814,26.138 32.574,32.727 23.231,34.084 19.054,42.55 14.875,34.084 5.533,32.727 
	12.293,26.138 10.697,16.833 "/>
<polygon points="40.873,21.314 46.336,24.187 45.292,18.104 49.712,13.795 43.604,12.908 40.873,7.373 38.142,12.908 32.033,13.795 
	36.453,18.104 35.41,24.187 "/>
</svg>
