<svg xmlns="http://www.w3.org/2000/svg" xmlns:xlink="http://www.w3.org/1999/xlink" version="1.1" id="Layer_1" x="0px" y="0px" width="100px" height="100px" viewBox="5.0 -10.0 100.0 135.0" enable-background="new 0 0 100 100" xml:space="preserve">
<path fill="#000000" d="M30.164,30.387c0.505-0.26,1.015-0.453,1.505-0.579l-1.084-2.365c-0.117-0.21-0.381-0.286-0.592-0.169  c0,0-0.795,0.231-1.45,0.582s-1.264,0.926-1.264,0.926c-0.211,0.117-0.287,0.381-0.17,0.592l1.432,2.164  C28.984,31.114,29.526,30.715,30.164,30.387z"/>
<path fill="#000000" d="M52.67,38.596L38.299,20.37c-1.147-1.457-3.259-1.707-4.716-0.558l-0.126,0.099l19.213,24.37V38.596z"/>
<path fill="#000000" d="M88.141,44.732H60.67v3.519h30.829v-0.16C91.499,46.236,89.995,44.732,88.141,44.732z"/>
<path fill="#000000" d="M91.249,50.564h-0.083H59.559l-0.018-19.382c0.024-1.518-1.187-2.77-2.704-2.795  c-1.52-0.024-2.771,1.187-2.795,2.705l0.017,19.472H48.25c-1.714-3.146-2.926-5.375-2.926-5.375s-1.114-2.192-3.566-2.541  c-2.453-0.348-3.102-1.268-3.328-1.671c-0.191-0.342-2.925-5.665-4.604-8.662c0.126-0.145,0.157-0.357,0.057-0.534l-0.424-0.753  c-0.098-0.176-0.296-0.262-0.483-0.229c-0.074-0.133-0.115-0.207-0.115-0.207s-0.359-0.823-2.513,0.386l-0.035,0.02l-0.034,0.02  c-2.154,1.21-1.639,1.946-1.639,1.946s0.042,0.073,0.116,0.206c-0.126,0.144-0.155,0.356-0.057,0.531l0.425,0.754  c0.099,0.177,0.296,0.263,0.483,0.229c1.688,2.994,4.434,8.31,4.625,8.651c0.228,0.404,1.055,1.223,0.075,3.499  c-0.213,0.497-0.305,0.98-0.339,1.439l-2.32-2.285c-3.521-1.122-7.002,0.488-5.734-0.799c0.682-0.692,2.015-1.168,3.464-1.437  l-2.177-2.142c-3.521-1.122-7,0.489-5.734-0.799c0.683-0.693,2.015-1.169,3.464-1.437l-1.714-1.688  c-3.522-1.122-7.001,0.488-5.735-0.799c0.683-0.692,2.014-1.168,3.464-1.437l-3.84-3.781c-2.8-2.757-7.24-2.834-8.88-1.169  c-1.64,1.666,1.276,5.56,2.942,7.199l13.063,12.864h-2.695H21.37v0.034c-0.47,0.082-0.833,0.473-0.833,0.966v3.75  c0,0.493,0.364,0.885,0.833,0.967v13.614c0,7.669,5.667,12.103,12.671,12.103h44.456c9.002,0,12.669-5.434,12.669-12.103V56.314  h0.083c0.553,0,1-0.447,1-1v-3.75C92.249,51.012,91.802,50.564,91.249,50.564z M54.062,53.628l0.001,1.64  c-0.003,0.186,0.014,0.366,0.046,0.541c0.231,1.264,1.325,2.231,2.659,2.254c1.348,0.021,2.479-0.93,2.736-2.205  c0.035-0.162,0.056-0.328,0.059-0.5l-0.002-1.893c0.638,0.668,1.034,1.566,1.034,2.562c0,0.098-0.021,0.191-0.029,0.287h0.001  c-0.149,1.916-1.734,3.43-3.688,3.43s-3.539-1.514-3.688-3.43h0.001c-0.008-0.096-0.029-0.189-0.029-0.287  C53.161,55.107,53.508,54.277,54.062,53.628z M85.999,72.365c0,3.277-2.656,5.934-5.933,5.934H33.472  c-3.277,0-5.933-2.656-5.933-5.934V71.78c0.739,2.464,3.021,4.261,5.727,4.261h47.007c2.704,0,4.987-1.797,5.727-4.262V72.365z"/>
<text x="0.0" y="117.5" font-size="5.0" font-weight="bold" font-family="Helvetica Neue, Helvetica, Arial-Unicode, Arial, Sans-serif" fill="#000000">Created by Ivan Pletenac</text><text x="0.0" y="122.5" font-size="5.0" font-weight="bold" font-family="Helvetica Neue, Helvetica, Arial-Unicode, Arial, Sans-serif" fill="#000000">from the Noun Project</text></svg>