<svg xmlns="http://www.w3.org/2000/svg" xmlns:xlink="http://www.w3.org/1999/xlink" version="1.1" x="0px" y="0px" width="100px" height="100px" viewBox="5.0 -10.0 100.0 135.0" enable-background="new 0 0 100 100" xml:space="preserve">
<g id="Layer_1">
</g>
<g id="Ebene_1">
	<path d="M96.382,28.466C93.256,12.568,80.634,1.029,66.37,1.029c-1.671,0-3.353,0.163-4.998,0.486   c-2.628,0.518-5.117,1.432-7.43,2.69c0.626,0.085,1.247,0.188,1.862,0.312c0.607,0.124,1.209,0.268,1.804,0.431   c3.384,0.922,6.543,2.456,9.354,4.571c6.61,4.975,10.606,12.567,11.25,21.375c0.634,8.672-2.068,17.505-7.612,24.869   c-0.974,1.294-2.019,2.513-3.123,3.658c-0.471,0.487-0.951,0.962-1.443,1.422c-0.541,0.505-1.094,0.994-1.659,1.465l2.929-0.577   c-0.096,0.344-0.117,0.709-0.044,1.077l0.363,2.048l0.199,1.127l0.155,0.874c-0.481-0.381-0.998-0.704-1.543-0.989   c-1.021-0.534-2.138-0.943-3.305-1.366c-0.353-0.128-0.717-0.262-1.085-0.398c-0.293,0.207-0.588,0.409-0.886,0.609   c-0.079,0.051-0.158,0.104-0.238,0.155c-0.324,0.213-0.65,0.42-0.979,0.622c-0.062,0.036-0.121,0.076-0.182,0.112   c0.914,0.383,1.786,0.701,2.607,0.999c3.61,1.309,5.79,2.099,6.697,6.711l0.215,1.096l0.035-0.007l3.911,22.06   C73.47,97.709,75.419,99,78.253,99c0.657,0,1.343-0.07,2.04-0.207c4.6-0.903,6.323-3.462,6.036-4.927l-4.724-21.88l0.033-0.007   l-0.216-1.096c-0.905-4.614,0.812-6.169,3.661-8.748c1.495-1.352,3.189-2.886,4.807-5.152l0.161-0.224   C95.829,49.446,98.472,39.101,96.382,28.466z M84.118,94.211c-0.137,0.371-1.152,1.78-4.255,2.39   c-0.556,0.108-1.097,0.165-1.609,0.165c-1.653,0-2.619-0.58-2.856-0.846l-5.943-33.523c-0.016-0.08,0.037-0.159,0.117-0.175   l7.218-1.415c0.059,0,0.13,0.042,0.149,0.141L84.118,94.211z M83.586,60.48c-0.923,0.836-1.802,1.637-2.546,2.518   c-0.396,0.471-0.751,0.963-1.053,1.497l-0.187-0.865l-0.243-1.127l-0.432-2.004c-0.073-0.376-0.239-0.713-0.463-0.998l7.176-1.41   l0.3-0.059C85.265,58.96,84.395,59.748,83.586,60.48z"/>
	<path d="M76.652,31.008c-0.61-8.351-4.386-15.539-10.631-20.239c-3.168-2.384-6.808-3.991-10.722-4.758   c-0.581-0.114-1.17-0.206-1.763-0.283c-0.599-0.077-1.201-0.135-1.809-0.174c-0.61-0.038-1.222-0.063-1.841-0.063   c-3.213,0-6.415,0.522-9.504,1.517c-0.177-0.49-0.396-0.967-0.659-1.426c-0.391-0.686-0.869-1.334-1.453-1.917   C36.553,1.946,34.268,1,31.839,1c-2.43,0-4.713,0.946-6.432,2.665c-3.182,3.182-3.499,8.149-0.971,11.699   c0.29,0.407,0.607,0.799,0.971,1.163c0.014,0.013,0.029,0.024,0.043,0.038c-0.946,1.005-1.843,2.069-2.688,3.19   c-5.316,7.062-7.909,15.52-7.302,23.815c0.07,0.955,0.187,1.893,0.339,2.815c0.109,0.667,0.239,1.324,0.391,1.973   c0.471,2.689,1.312,4.78,2.057,6.625c0.684,1.691,1.233,3.066,1.324,4.446c0.021,0.318,0.017,0.64-0.017,0.964   c-0.125,1.219-0.655,2.5-1.827,4.057c-0.066,0.087-0.112,0.183-0.149,0.28L3.279,83.01c-0.916,1.219-0.222,4.401,2.988,6.82   c2.316,1.741,4.174,2.107,5.325,2.107c1.072,0,1.931-0.326,2.372-0.909l13.599-18.782c0.084-0.062,0.163-0.133,0.228-0.22   c1.196-1.588,2.286-2.447,3.406-2.894c0.298-0.118,0.597-0.207,0.9-0.272c0.552-0.12,1.118-0.166,1.717-0.166   c0.897,0,1.885,0.104,2.932,0.212c1.277,0.134,2.727,0.284,4.337,0.284c0.921,0,1.798-0.049,2.683-0.146   c0.641-0.033,1.281-0.088,1.919-0.163c4.282-0.494,8.478-1.894,12.341-4.074c0.031-0.02,0.064-0.039,0.097-0.057   c0.355-0.202,0.705-0.411,1.054-0.625c0.053-0.034,0.104-0.065,0.155-0.098c0.327-0.203,0.65-0.411,0.972-0.626   c0.051-0.032,0.104-0.066,0.155-0.101c0.15-0.104,0.301-0.21,0.451-0.313c0.699-0.488,1.386-1.002,2.055-1.543   c0.582-0.471,1.151-0.963,1.707-1.473c1.69-1.547,3.261-3.268,4.677-5.149C74.666,47.761,77.26,39.304,76.652,31.008z    M26.986,5.245c1.297-1.297,3.021-2.011,4.853-2.011s3.555,0.714,4.853,2.01c0.345,0.345,0.645,0.721,0.901,1.114   c0.289,0.446,0.517,0.919,0.691,1.406c0.129,0.356,0.231,0.721,0.299,1.092c0.07,0.38,0.105,0.765,0.11,1.149   c0.009,0.604-0.067,1.207-0.217,1.796c-0.293,1.152-0.884,2.245-1.784,3.146c-1.297,1.297-3.02,2.011-4.853,2.011   c-0.411,0-0.814-0.041-1.21-0.111c-0.601-0.107-1.178-0.295-1.726-0.554c-0.351-0.167-0.688-0.361-1.009-0.588   c-0.305-0.215-0.594-0.453-0.865-0.718c-0.014-0.015-0.029-0.026-0.043-0.039c-0.364-0.365-0.674-0.763-0.94-1.182   C24.366,11.115,24.677,7.554,26.986,5.245z M19.088,50.83l0.223,0.167l2.523,1.899l2.375,1.789l0.959,0.722   c-0.328,0.161-0.615,0.394-0.833,0.685l-0.042,0.056l-0.249,0.315l-0.99,1.268l-0.276,0.352l-0.429,0.549l-0.546,0.7   c-0.032-0.517-0.111-1.023-0.225-1.526c-0.022-0.095-0.046-0.188-0.07-0.284c-0.284-1.117-0.726-2.22-1.191-3.373   C19.909,53.135,19.469,52.046,19.088,50.83z M12.231,89.614c-0.095,0.036-0.306,0.091-0.639,0.091   c-0.662,0-2.063-0.215-3.983-1.661c-2.093-1.575-2.541-3.269-2.477-3.777l20.946-26.777l0.031-0.039   c0.084-0.112,0.162-0.064,0.208-0.029l5.853,4.406c0.041,0.03,0.055,0.069,0.058,0.098c0.004,0.029,0.002,0.07-0.041,0.129   l-0.017,0.022L12.231,89.614z M36.977,66.686c-1.106-0.115-2.149-0.224-3.163-0.224c-0.142,0-0.28,0.005-0.419,0.009   c-0.095,0.004-0.188,0.01-0.282,0.015c-0.534,0.032-1.045,0.103-1.533,0.214l0.526-0.727l0.406-0.56l0.266-0.367l0.946-1.308   l0.231-0.32l0.029-0.04c0.229-0.303,0.367-0.648,0.432-1.011l0.969,0.728l2.368,1.783l2.528,1.903l0.224,0.169   C39.243,66.921,38.093,66.802,36.977,66.686z"/>
</g>
<text x="0.0" y="117.5" font-size="5.0" font-weight="bold" font-family="Helvetica Neue, Helvetica, Arial-Unicode, Arial, Sans-serif" fill="#000000">Created by Janina Reinhard</text><text x="0.0" y="122.5" font-size="5.0" font-weight="bold" font-family="Helvetica Neue, Helvetica, Arial-Unicode, Arial, Sans-serif" fill="#000000">from the Noun Project</text></svg>