<svg xmlns="http://www.w3.org/2000/svg" xmlns:xlink="http://www.w3.org/1999/xlink" version="1.0" id="Layer_1" x="0px" y="0px" width="50px" height="50px" viewBox="2.5 -5.0 50.0 67.5" enable-background="new 0 0 50 50" xml:space="preserve">
<g>
	<path fill-rule="evenodd" clip-rule="evenodd" d="M19.938,19.651"/>
	<g>
		<g>
			
				<ellipse transform="matrix(0.9796 0.201 -0.201 0.9796 5.5532 -4.3528)" fill="none" cx="24.213" cy="25.172" rx="1.186" ry="2.216"/>
			
				<ellipse transform="matrix(0.2009 -0.9796 0.9796 0.2009 -18.7754 50.3067)" fill="none" cx="21.446" cy="36.661" rx="2.217" ry="1.186"/>
			
				<ellipse transform="matrix(0.2007 -0.9796 0.9796 0.2007 -5.0408 31.8324)" fill="none" cx="16.988" cy="19.005" rx="2.114" ry="1.185"/>
			
				<ellipse transform="matrix(0.2011 -0.9796 0.9796 0.2011 -14.7151 39.6747)" fill="none" cx="16.966" cy="28.859" rx="2.217" ry="1.186"/>
			
				<ellipse transform="matrix(0.2013 -0.9795 0.9795 0.2013 -22.1801 59.2312)" fill="none" cx="25.23" cy="43.216" rx="2.114" ry="1.185"/>
			
				<ellipse transform="matrix(0.2014 -0.9795 0.9795 0.2014 5.4574 46.9642)" fill="none" cx="31.53" cy="20.135" rx="2.114" ry="1.184"/>
			
				<ellipse transform="matrix(0.201 -0.9796 0.9796 0.201 1.6141 55.8099)" fill="none" cx="35.018" cy="26.916" rx="2.114" ry="1.186"/>
			
				<ellipse transform="matrix(0.2005 -0.9797 0.9797 0.2005 -9.4445 54.6738)" fill="none" cx="28.776" cy="33.124" rx="2.114" ry="1.185"/>
			<path fill="#000000" d="M24.804,8.549c-0.016,0-0.03,0-0.046,0.001l0.04,0.165C24.798,8.715,24.796,8.653,24.804,8.549z"/>
			<path fill="#000000" d="M39.39,12.192c-1.26-0.664-2.507-1.219-3.736-1.682c-1.074,0.297-2.041,0.653-2.604,1.07     c0,0,4.012,0.802,4.928,5.386c0,0-8.1,1.819-8.846-3.396c-1.434,0.802-2.215,2.938-3.074,5.917     c-3.208-0.802-4.68-3.914-5.099-5.902c0,0-6.062,3.488-8.366,3.324c0,0-0.172-6.304,5.043-6.132c0,0-0.814-0.468-2.214-0.765     c-2.413,0.752-4.208,1.613-5.167,2.126c-4.601,1.322-6.089,5.605-3.171,10.66c3.521,6.099,7.711,16.079,11.232,22.178     c3.521,6.1,9.282,6.1,12.804,0c3.521-6.099,7.711-16.079,11.234-22.178C45.229,17.819,43.831,13.581,39.39,12.192z      M18.128,29.097c-0.247,1.199-0.966,2.064-1.607,1.934s-0.961-1.211-0.716-2.41c0.245-1.2,0.965-2.065,1.607-1.933     C18.054,26.818,18.374,27.897,18.128,29.097z M18.15,19.244c-0.234,1.144-0.945,1.964-1.587,1.832     c-0.642-0.131-0.972-1.165-0.736-2.309c0.233-1.145,0.944-1.964,1.585-1.833C18.055,17.066,18.385,18.1,18.15,19.244z      M22.606,36.899c-0.245,1.199-0.965,2.064-1.605,1.934c-0.643-0.132-0.965-1.211-0.717-2.41c0.245-1.201,0.965-2.065,1.607-1.934     C22.532,34.62,22.854,35.699,22.606,36.899z M23.052,24.934c0.247-1.199,0.965-2.064,1.606-1.933     c0.642,0.131,0.962,1.209,0.716,2.409s-0.966,2.065-1.606,1.934C23.126,27.212,22.805,26.134,23.052,24.934z M26.392,43.454     c-0.234,1.145-0.945,1.965-1.587,1.833c-0.64-0.132-0.972-1.165-0.735-2.309c0.233-1.144,0.944-1.965,1.586-1.833     C26.294,41.277,26.626,42.311,26.392,43.454z M29.938,33.361c-0.234,1.144-0.945,1.964-1.586,1.833     c-0.643-0.132-0.971-1.166-0.736-2.311c0.234-1.143,0.943-1.963,1.584-1.831C29.845,31.184,30.173,32.218,29.938,33.361z      M32.692,20.374c-0.234,1.145-0.945,1.964-1.588,1.832c-0.639-0.131-0.971-1.164-0.734-2.31c0.232-1.143,0.945-1.963,1.586-1.832     C32.597,18.196,32.929,19.23,32.692,20.374z M36.181,27.153c-0.236,1.145-0.945,1.964-1.588,1.833     c-0.643-0.132-0.971-1.165-0.736-2.311c0.234-1.143,0.945-1.964,1.586-1.831C36.085,24.976,36.413,26.01,36.181,27.153z"/>
		</g>
		<path fill="#000000" d="M26.626,20.475l-0.766-0.192c-2.92-0.729-4.651-3.146-5.417-5.473c-1.873,1.016-5.948,3.059-7.908,2.917    l-0.74-0.053l-0.021-0.741c-0.003-0.141-0.071-3.466,1.893-5.483c0.285-0.293,0.596-0.543,0.933-0.75    c-0.443-0.064-0.934-0.104-1.466-0.104c-1.156,0-2.335,0.189-3.502,0.562l-1.906,0.608l0.933-1.77    c1.467-2.782,3.831-4.253,6.835-4.253c1.155,0,2.232,0.218,3.096,0.471c-0.104-0.5-0.126-1.063,0.02-1.66    c0.386-1.568,1.79-2.834,4.172-3.764l0.875-0.341l1.307,5.448c0.97-1.409,2.889-3.002,6.688-3.937l1.059-0.261l-0.207,5.023    c1.52,0.021,5.037,0.278,9.061,1.983l2.853,1.209l-3.077,0.357c-1.277,0.149-4.26,0.604-6.251,1.258    c1.378,0.785,3.104,2.332,3.692,5.276l0.157,0.784l-0.78,0.175c-0.06,0.014-1.477,0.327-3.211,0.327    c-3.193,0-5.355-1.068-6.238-3.042c-0.688,0.93-1.238,2.496-1.863,4.664L26.626,20.475z M21.527,12.314l0.232,1.103    c0.384,1.823,1.587,4.112,3.751,5.028c0.769-2.559,1.611-4.688,3.222-5.589l1.041-0.582l0.168,1.181    c0.285,1.991,1.969,3.001,5.004,3.001c0.781,0,1.497-0.073,2.017-0.146c-1.067-3.288-4.042-3.921-4.073-3.927l-1.811-0.362    l1.482-1.099c1.092-0.808,3.368-1.391,5.312-1.766c-3.572-0.972-6.101-0.79-6.161-0.784L30.796,8.44l0.188-4.597    c-5.345,1.67-5.369,4.712-5.367,4.849l-1.615,0.214l-1.491-6.214c-1.307,0.644-2.099,1.409-2.309,2.24    c-0.293,1.163,0.601,2.231,0.609,2.242l-1.002,1.258c-0.02-0.011-2.028-1.054-4.315-1.054c-1.703,0-3.111,0.576-4.208,1.717    c0.618-0.092,1.235-0.138,1.849-0.138c2.956,0,4.833,1.066,4.911,1.111l-0.437,1.526l-0.181-0.003    c-1.088,0-1.935,0.326-2.588,0.998c-0.908,0.933-1.265,2.405-1.382,3.423c2.063-0.422,5.711-2.343,7.092-3.138L21.527,12.314z"/>
	</g>
</g>
<text x="0.0" y="58.75" font-size="2.5" font-weight="bold" font-family="Helvetica Neue, Helvetica, Arial-Unicode, Arial, Sans-serif" fill="#000000">Created by Mister Pixel</text><text x="0.0" y="61.25" font-size="2.5" font-weight="bold" font-family="Helvetica Neue, Helvetica, Arial-Unicode, Arial, Sans-serif" fill="#000000">from the Noun Project</text></svg>